<?xml version="1.0" encoding="UTF-8"?>
<!DOCTYPE svg PUBLIC "-//W3C//DTD SVG 1.1//EN" "http://www.w3.org/Graphics/SVG/1.1/DTD/svg11.dtd">
<!-- Creator: CorelDRAW 2019 (64-Bit) -->
<svg xmlns="http://www.w3.org/2000/svg" xml:space="preserve" width="49mm" height="49mm" version="1.1" style="shape-rendering:geometricPrecision; text-rendering:geometricPrecision; image-rendering:optimizeQuality; fill-rule:evenodd; clip-rule:evenodd"
viewBox="0 0 4885.78 4885.78"
 xmlns:xlink="http://www.w3.org/1999/xlink"
 xmlns:xodm="http://www.corel.com/coreldraw/odm/2003">
 <defs>
  <style type="text/css">
   <![CDATA[
    .fil1 {fill:url(#id0)}
    .fil0 {fill:url(#id1)}
    .fil2 {fill:url(#id2)}
    .fil3 {fill:url(#id3);fill-rule:nonzero}
   ]]>
  </style>
  <linearGradient id="id0" gradientUnits="userSpaceOnUse" x1="696.32" y1="3665.85" x2="4189.46" y2="1219.93">
   <stop offset="0" style="stop-opacity:1; stop-color:#FFE270"/>
   <stop offset="0.207843" style="stop-opacity:1; stop-color:#FFE16F"/>
   <stop offset="0.501961" style="stop-opacity:1; stop-color:#D1991F"/>
   <stop offset="1" style="stop-opacity:1; stop-color:#FEE06D"/>
  </linearGradient>
  <linearGradient id="id1" gradientUnits="userSpaceOnUse" xlink:href="#id0" x1="441.79" y1="1041.71" x2="4443.99" y2="3844.07">
  </linearGradient>
  <linearGradient id="id2" gradientUnits="userSpaceOnUse" xlink:href="#id0" x1="734.23" y1="3639.31" x2="4151.55" y2="1246.47">
  </linearGradient>
  <linearGradient id="id3" gradientUnits="userSpaceOnUse" x1="1349.59" y1="2442.89" x2="3536.19" y2="2442.89">
   <stop offset="0" style="stop-opacity:1; stop-color:#874800"/>
   <stop offset="0.45098" style="stop-opacity:1; stop-color:#904D01"/>
   <stop offset="1" style="stop-opacity:1; stop-color:#995303"/>
  </linearGradient>
 </defs>
 <g id="Слой_x0020_1">
  <metadata id="CorelCorpID_0Corel-Layer"/>
  <g id="_2227225922624">
   <circle class="fil0" cx="2442.89" cy="2442.89" r="2442.89"/>
   <circle class="fil1" cx="2442.89" cy="2442.89" r="2132.17"/>
   <circle class="fil2" cx="2442.89" cy="2442.89" r="2085.89"/>
   <polygon class="fil3" points="1714.53,4082.08 1714.53,3718.36 1349.59,3718.36 1349.59,1168.03 1714.53,1168.03 1714.53,803.7 3171.25,803.7 3171.25,1168.03 3536.19,1168.03 3536.19,1896.7 2807.53,1896.7 2807.53,1531.76 2078.26,1531.76 2078.26,3353.42 2807.53,3353.42 2807.53,2989.69 3536.19,2989.69 3536.19,3718.36 3171.25,3718.36 3171.25,4082.08 "/>
  </g>
 </g>
</svg>
