<?xml version="1.0" encoding="UTF-8"?>
<!DOCTYPE svg PUBLIC "-//W3C//DTD SVG 1.1//EN" "http://www.w3.org/Graphics/SVG/1.1/DTD/svg11.dtd">
<!-- Creator: CorelDRAW 2019 (64-Bit) -->
<svg xmlns="http://www.w3.org/2000/svg" xml:space="preserve" width="205mm" height="310mm" version="1.1" style="shape-rendering:geometricPrecision; text-rendering:geometricPrecision; image-rendering:optimizeQuality; fill-rule:evenodd; clip-rule:evenodd"
viewBox="0 0 20500 31000"
 xmlns:xlink="http://www.w3.org/1999/xlink"
 xmlns:xodm="http://www.corel.com/coreldraw/odm/2003">
 <defs>
  <style type="text/css">
   <![CDATA[
    .fil0 {fill:black}
   ]]>
  </style>
 </defs>
 <g id="Слой_x0020_1">
  <metadata id="CorelCorpID_0Corel-Layer"/>
  <g id="_1642831216880">
   <path class="fil0" d="M9446.29 172.42c-3482.89,304.91 -5787.44,2109.79 -7213.74,3952.68 -1603.59,2072.01 -2564.99,5600.97 -1596.74,8820.62 452.21,1503.75 1163.14,2622.99 1930.97,3631.23 763.42,1002.43 1677.94,2015.4 2186.84,3443.87 594.5,1668.7 74.41,3192.58 1288.41,4274.31 600.68,535.24 1258.6,567.17 2248.71,568.88 1001.61,1.75 4729.63,115.45 5433.11,-132.97 2333.95,-824.16 1039.28,-3315.6 2535.45,-5842.22 1441.01,-2433.49 3388.53,-3656.8 3890.22,-7302.11 889.08,-6460.21 -4367.32,-11968.97 -10703.23,-11414.29zm-2095.29 13710.77c77.29,364.41 762.31,1572.41 969.17,2034.11 775.88,1731.68 1187.91,2901.31 1323.83,4854.48 68.68,987.29 -27.5,2053.81 57.19,3001.83l1085.71 8.59c154.45,-2055.23 -208.5,-3180.46 521.93,-5621.24 578.67,-1933.7 1612.33,-3507.58 1840.76,-4255.47l-2825.25 -5.02c-131.2,618.8 213.55,1533.69 -437.36,1648.52 -726.27,128.1 -679.62,-817.21 -613.16,-1366.45 50.01,-109.46 954.75,-633.04 1356.32,-1056.81 187.14,-197.49 159.99,-273.47 537.02,-287.88 1060.31,-40.53 2216.86,12.96 3290.41,9.15l28.6 -5912.02 -2468.49 -0.47c3.79,1808.74 -264.06,3411.11 -1081.55,4687.31 -677.59,1057.82 -1785.53,2120.84 -3585.13,2261.37zm1247.59 9880.35c106.96,-3112.41 -36.27,-4785.1 -1210.07,-7316.21l-1049.91 -2169.8c-185.04,-384.37 -112.94,-421.46 -515.34,-555.77 -3581.15,-1195.4 -3424.86,-6595.06 -88.12,-7706.86 1323.84,-441.09 2420.62,-106.06 3375.74,532.52 685.19,458.1 319.25,1185.95 -259.36,1064.43 -271.82,-57.1 -757.5,-590.01 -1482.12,-729.22 -2585.23,-496.64 -3957.74,2767.38 -2570.42,4848.09 496.16,744.11 1685.95,1409.08 3078.6,1051.71 1103.2,-283.11 1861.03,-1111.98 2343.2,-1943.22 533.33,-919.44 731.09,-2299.95 775.17,-3516.1 27.12,-748.17 -157.62,-1393.88 710.14,-1425.88 693.82,-25.57 1446.8,4 2148.2,2.38 1969,-4.52 1698.75,-244.03 1684.07,2607.2 -6.42,1247.54 -107.16,3153.29 20.22,4328.2 820.65,58.37 1240.9,-322.28 1050.08,2177.39 -42.5,556.71 -603.46,744.09 -913.27,367.86 -252.16,-306.23 -86.68,-1046.79 -141.29,-1467.95l-1163.53 -15.18c-384.01,451.99 -1691.74,3446.16 -1949.57,4189.42 -536.24,1545.83 -700.38,3932.05 -549.16,5695.28 2317.4,-28.86 2150.59,-150.14 2452.91,-2389.82 636.07,-4712.22 3940.09,-5172.45 4697.54,-9850.14 907.67,-5605.34 -3560.63,-10351.96 -8808.21,-10321.38 -2072.8,12.08 -3855.25,671.92 -5389.43,1829.17 -2551.6,1924.69 -3948.59,5250.76 -3404.64,8485.56 789.9,4697.66 4042.25,5115.83 4710.92,9841.66 209.49,1480.55 -89.34,2627.84 2447.65,2386.66z"/>
   <path class="fil0" d="M12922.44 25505.82c-1495.75,149.02 -2971.75,305.06 -4452.6,465.9 -454.52,49.36 -1856.15,79.96 -2096.42,326.53 -238.38,244.63 -147.14,649.64 69.28,812.78 283.91,214.02 782.09,77.84 1126.67,45.14 613.03,-58.16 6240.33,-524.1 6530.72,-773.79 247.94,-213.2 219.21,-673.29 -43.09,-852.43 -290.45,-198.37 -788.69,-58.6 -1134.56,-24.13z"/>
   <path class="fil0" d="M12915.6 27312.49c-1496.81,159.72 -2986.78,298.24 -4484.22,450.42 -482.03,48.98 -1786.05,90.8 -2055.31,346.82 -236.2,224.59 -157.94,648.73 61.23,817.76 290.24,223.81 760.36,76.27 1116.28,36.37 1481.67,-166.11 2968.79,-297.75 4444.37,-456.75 449.31,-48.43 1836.83,-91.85 2102.29,-313.78 250.72,-209.61 215.49,-671.66 -42.5,-854.86 -284.48,-202.04 -797.85,-62.72 -1142.14,-25.98z"/>
   <path class="fil0" d="M7911.96 29636.79c182.84,301.07 417.56,491.46 645.99,722.71 614.5,622.11 872.86,510.25 2012.62,507.59 1018.62,-2.39 880.94,-43.07 1435.13,-546.48 258.64,-234.95 731.67,-739.61 843.22,-1176.32l-4936.96 492.5z"/>
  </g>
 </g>
</svg>
