<?xml version="1.0" encoding="UTF-8"?>
<!DOCTYPE svg PUBLIC "-//W3C//DTD SVG 1.1//EN" "http://www.w3.org/Graphics/SVG/1.1/DTD/svg11.dtd">
<!-- Creator: CorelDRAW 2019 (64-Bit) -->
<svg xmlns="http://www.w3.org/2000/svg" xml:space="preserve" width="574mm" height="70mm" version="1.1" style="shape-rendering:geometricPrecision; text-rendering:geometricPrecision; image-rendering:optimizeQuality; fill-rule:evenodd; clip-rule:evenodd"
viewBox="0 0 57400 7000"
 xmlns:xlink="http://www.w3.org/1999/xlink"
 xmlns:xodm="http://www.corel.com/coreldraw/odm/2003">
 <defs>
  <style type="text/css">
   <![CDATA[
    .fil1 {fill:black}
    .fil0 {fill:black;fill-rule:nonzero}
   ]]>
  </style>
 </defs>
 <g id="Слой_x0020_1">
  <metadata id="CorelCorpID_0Corel-Layer"/>
  <path class="fil0" d="M37442.2 6465.12l-516.64 0 0 -1248.54 412.59 0 2021.11 -4671.29 178.21 0 2134.72 4671.29 398.25 0 0 1248.54 -516.65 0 0 -767.78 -4111.59 0 0 767.78zm477.17 -1248.54l3142.89 0 -1610.91 -3594.95 -1531.98 3594.95z"/>
  <path class="fil0" d="M17864.51 800.01c779.74,0 1432.72,260.72 1957.72,780.94 525.02,520.23 788.13,1161.25 788.13,1921.86 0,754.63 -261.91,1394.45 -785.73,1919.46 -525.02,525.01 -1163.64,788.12 -1918.27,788.12 -762.99,0 -1407.6,-261.91 -1932.61,-784.54 -525.01,-522.61 -788.11,-1155.25 -788.11,-1897.92 0,-495.12 119.59,-953.16 358.77,-1376.52 239.19,-422.16 565.68,-753.43 979.46,-992.62 412.6,-239.18 859.88,-358.78 1340.64,-358.78zm22.72 502.3c-380.31,0 -741.48,99.26 -1083.51,297.78 -340.84,198.52 -607.53,465.22 -800.07,801.27 -191.35,337.26 -287.02,711.57 -287.02,1125.37 0,611.12 211.68,1127.75 636.22,1548.72 424.56,422.16 936.42,632.64 1534.38,632.64 400.63,0 770.17,-96.86 1109.82,-290.61 340.84,-193.73 606.33,-459.23 796.48,-795.28 190.16,-336.06 285.83,-709.19 285.83,-1120.59 0,-409.01 -95.67,-778.55 -285.83,-1108.62 -190.15,-330.08 -459.23,-594.38 -804.86,-792.9 -345.61,-198.52 -712.76,-297.78 -1101.44,-297.78z"/>
  <path class="fil1" d="M28028.9 55.2l-5861.79 0c-285.52,0 -519.11,233.59 -519.11,519.1l0 5861.8c0,285.51 233.59,519.1 519.11,519.1l5861.79 0c285.52,0 519.1,-233.59 519.1,-519.1l0 -5861.8c0,-285.51 -233.58,-519.1 -519.1,-519.1zm-5861.8 300l5861.8 0c120.51,0 219.1,98.59 219.1,219.1l0 5861.8c0,120.51 -98.59,219.1 -219.1,219.1l-5861.8 0c-120.51,0 -219.1,-98.59 -219.1,-219.1l0 -5861.8c0,-120.51 98.59,-219.1 219.1,-219.1z"/>
  <path class="fil1" d="M20828.9 55.2l-5861.79 0c-285.52,0 -519.11,233.59 -519.11,519.1l0 5861.8c0,285.51 233.59,519.1 519.11,519.1l5861.79 0c285.52,0 519.1,-233.59 519.1,-519.1l0 -5861.8c0,-285.51 -233.58,-519.1 -519.1,-519.1zm-5861.8 300l5861.8 0c120.51,0 219.1,98.59 219.1,219.1l0 5861.8c0,120.51 -98.59,219.1 -219.1,219.1l-5861.8 0c-120.51,0 -219.1,-98.59 -219.1,-219.1l0 -5861.8c0,-120.51 98.59,-219.1 219.1,-219.1z"/>
  <path class="fil1" d="M13628.9 55.2l-5861.79 0c-285.52,0 -519.11,233.59 -519.11,519.1l0 5861.8c0,285.51 233.59,519.1 519.11,519.1l5861.79 0c285.52,0 519.1,-233.59 519.1,-519.1l0 -5861.8c0,-285.51 -233.58,-519.1 -519.1,-519.1zm-5861.8 300l5861.8 0c120.51,0 219.1,98.59 219.1,219.1l0 5861.8c0,120.51 -98.59,219.1 -219.1,219.1l-5861.8 0c-120.51,0 -219.1,-98.59 -219.1,-219.1l0 -5861.8c0,-120.51 98.59,-219.1 219.1,-219.1z"/>
  <path class="fil1" d="M6428.9 55.2l-5861.79 0c-285.52,0 -519.11,233.59 -519.11,519.1l0 5861.8c0,285.51 233.59,519.1 519.11,519.1l5861.79 0c285.52,0 519.1,-233.59 519.1,-519.1l0 -5861.8c0,-285.51 -233.58,-519.1 -519.1,-519.1zm-5861.8 300l5861.8 0c120.51,0 219.1,98.59 219.1,219.1l0 5861.8c0,120.51 -98.59,219.1 -219.1,219.1l-5861.8 0c-120.51,0 -219.1,-98.59 -219.1,-219.1l0 -5861.8c0,-120.51 98.59,-219.1 219.1,-219.1z"/>
  <polygon class="fil0" points="56183.41,6081.22 55622.53,6081.22 53912.35,2092.81 52173.47,6081.22 51612.59,6081.22 53858.54,929.18 53973.35,929.18 "/>
  <polygon class="fil0" points="45223.42,929.18 48172.58,929.18 48172.58,1431.47 45740.06,1431.47 45740.06,3045.97 48151.05,3045.97 48151.05,3548.26 45740.06,3548.26 45740.06,5578.93 48151.05,5578.93 48151.05,6081.22 45223.42,6081.22 "/>
  <path class="fil0" d="M23555.26 929.18l1015.34 0c409,0 723.54,47.83 942.39,144.71 220.05,96.86 393.46,246.35 520.23,447.27 127.96,199.72 191.35,423.36 191.35,667.32 0,229.63 -56.21,437.72 -167.43,625.48 -111.22,187.75 -275.07,339.64 -490.33,456.84 267.89,90.89 473.58,197.33 617.09,320.5 144.72,121.99 255.93,270.28 336.06,444.89 80.12,173.41 120.78,362.37 120.78,565.68 0,413.78 -150.68,764.19 -453.24,1050.02 -302.58,285.82 -708,429.33 -1217.46,429.33l-1414.78 0 0 -5152.04zm502.29 502.29l0 1650.37 295.39 0c358.78,0 623.08,-33.48 791.71,-99.26 168.62,-66.97 302.56,-172.22 400.63,-315.72 99.26,-143.51 148.3,-303.77 148.3,-478.38 0,-235.59 -82.53,-420.96 -247.56,-556.1 -166.24,-133.95 -429.34,-200.91 -790.51,-200.91l-597.96 0zm0 2167.01l0 1980.45 639.81 0c376.73,0 652.98,-37.07 828.79,-110.02 175.8,-74.15 316.92,-190.15 423.35,-346.82 106.44,-156.67 160.25,-326.49 160.25,-508.27 0,-229.62 -75.34,-430.53 -224.83,-601.55 -149.49,-169.82 -355.19,-287.02 -617.1,-350.41 -175.8,-41.85 -481.96,-63.38 -918.47,-63.38l-291.8 0z"/>
  <polygon class="fil0" points="12983.41,6081.22 12422.53,6081.22 10712.35,2092.81 8973.47,6081.22 8412.59,6081.22 10658.54,929.18 10773.35,929.18 "/>
  <path class="fil0" d="M6016.62 1879.93l-406.62 312.14c-223.63,-291.8 -492.72,-513.05 -807.24,-663.74 -313.34,-150.69 -657.77,-226.02 -1034.48,-226.02 -410.2,0 -790.51,99.26 -1140.91,296.58 -350.41,197.34 -620.69,462.83 -813.24,795.3 -192.54,332.46 -289.41,707.98 -289.41,1122.97 0,629.06 215.26,1154.07 645.8,1573.84 430.54,420.97 973.48,631.45 1630.05,631.45 721.14,0 1323.89,-282.24 1809.43,-846.72l406.62 308.56c-257.13,326.48 -577.63,580.02 -961.52,758.21 -383.9,178.19 -813.23,267.89 -1286.82,267.89 -901.73,0 -1613.31,-300.18 -2133.53,-900.54 -436.52,-505.88 -655.37,-1118.18 -655.37,-1834.55 0,-753.43 264.3,-1388.46 792.9,-1902.72 529.79,-515.44 1192.33,-772.57 1988.83,-772.57 480.76,0 914.87,94.49 1302.36,283.44 387.48,190.15 705.59,455.65 953.15,796.48z"/>
  <path class="fil1" d="M56828.9 55.2l-5861.79 0c-285.52,0 -519.11,233.59 -519.11,519.1l0 5861.8c0,285.51 233.59,519.1 519.11,519.1l5861.79 0c285.52,0 519.1,-233.59 519.1,-519.1l0 -5861.8c0,-285.51 -233.58,-519.1 -519.1,-519.1zm-5861.8 300l5861.8 0c120.51,0 219.1,98.59 219.1,219.1l0 5861.8c0,120.51 -98.59,219.1 -219.1,219.1l-5861.8 0c-120.51,0 -219.1,-98.59 -219.1,-219.1l0 -5861.8c0,-120.51 98.59,-219.1 219.1,-219.1z"/>
  <path class="fil1" d="M49628.9 55.2l-5861.79 0c-285.52,0 -519.11,233.59 -519.11,519.1l0 5861.8c0,285.51 233.59,519.1 519.11,519.1l5861.79 0c285.52,0 519.1,-233.59 519.1,-519.1l0 -5861.8c0,-285.51 -233.58,-519.1 -519.1,-519.1zm-5861.8 300l5861.8 0c120.51,0 219.1,98.59 219.1,219.1l0 5861.8c0,120.51 -98.59,219.1 -219.1,219.1l-5861.8 0c-120.51,0 -219.1,-98.59 -219.1,-219.1l0 -5861.8c0,-120.51 98.59,-219.1 219.1,-219.1z"/>
  <path class="fil1" d="M42428.9 55.2l-5861.79 0c-285.52,0 -519.11,233.59 -519.11,519.1l0 5861.8c0,285.51 233.59,519.1 519.11,519.1l5861.79 0c285.52,0 519.1,-233.59 519.1,-519.1l0 -5861.8c0,-285.51 -233.58,-519.1 -519.1,-519.1zm-5861.8 300l5861.8 0c120.51,0 219.1,98.59 219.1,219.1l0 5861.8c0,120.51 -98.59,219.1 -219.1,219.1l-5861.8 0c-120.51,0 -219.1,-98.59 -219.1,-219.1l0 -5861.8c0,-120.51 98.59,-219.1 219.1,-219.1z"/>
  <path class="fil1" d="M35228.9 55.2l-5861.79 0c-285.52,0 -519.11,233.59 -519.11,519.1l0 5861.8c0,285.51 233.59,519.1 519.11,519.1l5861.79 0c285.52,0 519.1,-233.59 519.1,-519.1l0 -5861.8c0,-285.51 -233.58,-519.1 -519.1,-519.1zm-5861.8 300l5861.8 0c120.51,0 219.1,98.59 219.1,219.1l0 5861.8c0,120.51 -98.59,219.1 -219.1,219.1l-5861.8 0c-120.51,0 -219.1,-98.59 -219.1,-219.1l0 -5861.8c0,-120.51 98.59,-219.1 219.1,-219.1z"/>
  <path class="fil0" d="M32264.51 800.01c779.74,0 1432.72,260.72 1957.72,780.94 525.02,520.23 788.13,1161.25 788.13,1921.86 0,754.63 -261.91,1394.45 -785.73,1919.46 -525.02,525.01 -1163.64,788.12 -1918.27,788.12 -762.99,0 -1407.6,-261.91 -1932.61,-784.54 -525.01,-522.61 -788.11,-1155.25 -788.11,-1897.92 0,-495.12 119.59,-953.16 358.77,-1376.52 239.19,-422.16 565.68,-753.43 979.46,-992.62 412.6,-239.18 859.88,-358.78 1340.64,-358.78zm22.72 502.3c-380.31,0 -741.48,99.26 -1083.51,297.78 -340.84,198.52 -607.53,465.22 -800.07,801.27 -191.35,337.26 -287.02,711.57 -287.02,1125.37 0,611.12 211.68,1127.75 636.22,1548.72 424.56,422.16 936.42,632.64 1534.38,632.64 400.63,0 770.17,-96.86 1109.82,-290.61 340.84,-193.73 606.33,-459.23 796.48,-795.28 190.16,-336.06 285.83,-709.19 285.83,-1120.59 0,-409.01 -95.67,-778.55 -285.83,-1108.62 -190.15,-330.08 -459.23,-594.38 -804.86,-792.9 -345.61,-198.52 -712.76,-297.78 -1101.44,-297.78z"/>
 </g>
</svg>
