<?xml version="1.0" encoding="UTF-8"?>
<!DOCTYPE svg PUBLIC "-//W3C//DTD SVG 1.1//EN" "http://www.w3.org/Graphics/SVG/1.1/DTD/svg11.dtd">
<!-- Creator: CorelDRAW 2019 (64-Bit) -->
<svg xmlns="http://www.w3.org/2000/svg" xml:space="preserve" width="600mm" height="93.0672mm" version="1.1" style="shape-rendering:geometricPrecision; text-rendering:geometricPrecision; image-rendering:optimizeQuality; fill-rule:evenodd; clip-rule:evenodd"
viewBox="0 0 59985.74 9304.51"
 xmlns:xlink="http://www.w3.org/1999/xlink"
 xmlns:xodm="http://www.corel.com/coreldraw/odm/2003">
 <defs>
  <style type="text/css">
   <![CDATA[
    .fil0 {fill:black;fill-rule:nonzero}
   ]]>
  </style>
 </defs>
 <g id="Слой_x0020_1">
  <metadata id="CorelCorpID_0Corel-Layer"/>
  <path class="fil0" d="M57063.78 92.47c92.46,0 154.1,42.39 184.93,127.15l2727.79 7640.09c15.41,53.95 11.56,104.03 -11.56,150.26 -23.12,46.23 -57.8,80.91 -104.04,104.03 -15.41,0 -26.96,1.92 -34.67,5.78 -7.71,3.85 -19.27,5.78 -34.67,5.78 -84.77,0 -142.56,-42.38 -173.38,-127.14l-2727.78 -7640.1c-38.53,-115.57 0,-200.34 115.58,-254.28l57.8 -11.57zm-55803.92 3236.36c-161.82,-46.24 -223.47,-131 -184.94,-254.29 92.47,-277.4 223.46,-535.54 392.99,-774.41 169.52,-238.88 366.02,-446.92 589.48,-624.16 223.47,-177.23 471.96,-314 745.51,-410.32 273.55,-96.32 560.59,-144.49 861.11,-144.49 385.27,0 747.44,78.99 1086.48,236.95 339.05,157.97 635.71,379.5 890,664.61 38.52,38.52 55.87,82.83 52.02,132.92 -3.86,50.09 -25.05,94.4 -63.57,132.93 -30.82,30.82 -73.21,46.23 -127.14,46.23 -53.95,0 -100.18,-19.27 -138.71,-57.8 -223.46,-246.58 -481.6,-437.29 -774.42,-572.14 -292.81,-134.85 -601.04,-202.26 -924.66,-202.26 -261.99,0 -510.5,42.38 -745.52,127.14 -235.02,84.76 -448.85,204.19 -641.49,358.3 -192.64,154.11 -360.24,333.27 -502.8,537.47 -142.55,204.2 -252.35,429.58 -329.4,676.16 -38.53,84.77 -100.18,127.15 -184.94,127.15zm2404.15 3733.35c-385.28,0 -739.73,-75.12 -1063.38,-225.38 -323.63,-150.27 -606.82,-352.54 -849.54,-606.83 -242.73,-254.28 -437.3,-549.02 -583.7,-884.21 -146.41,-335.2 -227.32,-687.74 -242.72,-1057.6l-739.74 0c-123.29,0 -184.93,-61.65 -184.93,-184.94 0,-523.98 90.54,-1028.7 271.62,-1514.15 181.08,-485.44 435.37,-915.04 762.86,-1288.75 327.48,-373.72 716.62,-674.24 1167.39,-901.57 450.77,-227.31 945.87,-340.96 1485.26,-340.96 392.98,0 768.63,63.56 1126.94,190.7 358.3,127.15 685.8,304.37 982.47,531.69 296.66,227.32 558.65,497 785.97,809.08 227.31,312.09 406.46,649.21 537.46,1011.36 15.41,53.95 13.49,105.95 -5.79,156.04 -19.27,50.09 -55.86,82.84 -109.8,98.25 -7.7,0 -15.41,1.93 -23.11,5.78 -7.71,3.85 -19.27,5.78 -34.67,5.78 -77.06,0 -138.7,-42.38 -184.94,-127.14 -115.58,-323.64 -275.47,-626.08 -479.68,-907.33 -204.19,-281.25 -439.22,-525.92 -705.06,-733.96 -265.85,-208.05 -558.66,-369.87 -878.43,-485.45 -319.78,-115.58 -656.9,-173.38 -1011.36,-173.38 -470.04,0 -903.49,96.33 -1300.32,288.96 -396.85,192.63 -739.73,450.78 -1028.7,774.42 -288.96,323.63 -518.21,693.51 -687.73,1109.6 -169.53,416.1 -265.84,847.62 -288.96,1294.54l728.19 0c53.93,0 98.24,19.27 132.92,57.79 34.67,38.54 52.01,84.77 52.01,138.71 0,331.34 57.8,653.05 173.38,965.13 115.58,312.08 277.39,587.54 485.45,826.42 208.04,238.87 458.48,429.59 751.29,572.14 292.81,142.55 612.59,213.83 959.35,213.83 454.62,0 870.73,-123.29 1248.3,-369.87 377.57,-246.58 666.53,-589.48 866.87,-1028.7 38.53,-69.35 96.33,-104.03 173.38,-104.03 30.82,0 57.8,3.85 80.91,11.56 46.23,23.11 77.05,59.72 92.46,109.8 15.42,50.09 15.42,98.25 0,144.48 -231.17,485.46 -564.43,876.51 -999.79,1173.18 -435.37,296.67 -922.75,444.99 -1462.13,444.99zm23.11 1086.49c-416.1,0 -816.8,-73.2 -1202.07,-219.61 -385.28,-146.41 -735.89,-352.54 -1051.81,-618.37 -315.93,-265.85 -587.55,-583.7 -814.87,-953.56 -227.33,-369.87 -394.92,-774.42 -502.8,-1213.63 -15.41,-53.95 -7.7,-102.11 23.12,-144.49 30.82,-42.38 73.2,-71.27 127.14,-86.69 46.24,0 92.47,9.63 138.71,28.9 46.23,19.27 73.2,55.86 80.9,109.8 92.47,369.86 236.95,720.47 433.44,1051.81 196.49,331.34 433.45,620.3 710.85,866.88 277.39,246.57 589.48,441.14 936.23,583.69 346.75,142.56 720.47,213.83 1121.16,213.83 354.46,0 695.42,-59.72 1022.91,-179.15 327.49,-119.44 628.02,-287.04 901.57,-502.8 273.54,-215.76 514.34,-473.89 722.4,-774.41 208.05,-300.52 369.87,-635.71 485.44,-1005.58 23.12,-92.47 84.77,-138.71 184.94,-138.71 7.71,0 15.42,1.93 23.12,5.79 7.7,3.85 19.26,5.78 34.67,5.78 107.87,38.53 150.26,119.44 127.14,242.72 -130.99,408.39 -312.08,780.19 -543.24,1115.38 -231.17,335.19 -500.86,622.23 -809.09,861.11 -308.23,238.87 -645.35,423.81 -1011.36,554.8 -366.01,131 -745.52,196.49 -1138.5,196.49zm2184.53 -5270.63c-84.76,-23.11 -142.56,-59.72 -173.38,-109.8 -30.82,-50.08 -38.52,-105.95 -23.1,-167.6 38.52,-92.47 104.02,-138.7 196.48,-138.7 30.82,0 53.94,3.85 69.35,11.56 53.94,15.41 92.47,48.16 115.58,98.25 23.11,50.09 26.97,105.95 11.56,167.6 -30.82,92.47 -96.32,138.7 -196.49,138.7zm5929.46 -2785.58c92.47,0 154.1,42.39 184.93,127.15l2727.79 7640.09c15.41,53.95 11.56,104.03 -11.56,150.26 -23.12,46.23 -57.8,80.91 -104.04,104.03 -15.41,0 -26.96,1.92 -34.66,5.78 -7.72,3.85 -19.28,5.78 -34.68,5.78 -84.77,0 -142.56,-42.38 -173.38,-127.14l-2727.77 -7640.1c-38.54,-115.57 0,-200.34 115.57,-254.28l57.8 -11.57zm-832.21 2993.64c84.77,15.41 140.63,48.15 167.61,98.24 26.96,50.09 32.74,98.25 17.33,144.49l-1375.44 3999.2c-38.53,84.76 -100.18,127.14 -184.94,127.14 -30.82,0 -50.09,-3.85 -57.79,-11.56 -53.95,-15.41 -92.47,-46.23 -115.59,-92.47 -23.11,-46.23 -26.96,-96.32 -11.56,-150.25l1375.44 -3987.65c38.54,-84.76 100.19,-127.13 184.94,-127.13zm-46.23 -2993.64c100.18,15.42 161.82,61.65 184.94,138.71l2288.57 6831.01c38.52,123.29 0,204.2 -115.59,242.73 -15.41,7.71 -34.67,11.56 -57.79,11.56 -100.18,0 -161.82,-42.38 -184.94,-127.14l-2115.19 -6310.89 -2485.05 7108.42c-23.11,92.47 -80.91,138.7 -173.38,138.7 -15.42,0 -26.97,-1.93 -34.67,-5.78 -7.71,-3.86 -19.27,-5.78 -34.68,-5.78 -46.23,-15.41 -80.91,-48.16 -104.02,-98.25 -23.12,-50.09 -26.98,-98.25 -11.57,-144.49l2670 -7640.09c23.11,-92.47 80.9,-138.71 173.37,-138.71zm-1560.38 7628.55c84.76,23.12 142.56,59.72 173.38,109.8 30.82,50.09 38.52,105.95 23.11,167.6 -23.11,69.35 -57.8,109.8 -104.03,121.36 -46.24,11.56 -100.18,17.34 -161.82,17.34 -53.94,-23.11 -92.47,-59.72 -115.58,-109.8 -23.12,-50.09 -26.96,-102.1 -11.56,-156.04l0 -11.56c38.52,-92.47 104.03,-138.7 196.49,-138.7zm6183.73 -3675.58c0,-369.86 48.16,-735.88 144.49,-1098.04 96.33,-362.16 235.02,-703.14 416.1,-1022.92 181.08,-319.78 402.62,-610.67 664.61,-872.66 261.99,-261.99 558.65,-477.75 890,-647.27 15.41,-15.42 46.23,-23.11 92.47,-23.11 69.34,0 123.28,30.82 161.81,92.47 30.82,53.94 36.6,105.94 17.34,156.03 -19.27,50.09 -52.01,86.69 -98.24,109.8 -300.53,161.82 -570.21,360.23 -809.1,595.26 -238.87,235.01 -439.22,497.01 -601.04,785.96 -161.81,288.97 -285.1,597.2 -369.87,924.68 -84.75,327.48 -127.13,660.75 -127.13,999.79 0,470.05 82.83,926.61 248.49,1369.67 165.68,443.07 396.85,834.13 693.51,1173.18 296.67,339.05 651.13,610.66 1063.38,814.87 412.25,204.19 864.95,306.3 1358.12,306.3 493.15,0 943.93,-102.11 1352.33,-306.3 408.39,-204.2 760.92,-477.75 1057.59,-820.64 296.67,-342.91 527.83,-733.96 693.51,-1173.18 165.67,-439.22 248.51,-893.85 248.51,-1363.9 0,-454.62 -77.06,-895.78 -231.18,-1323.44 -154.1,-427.66 -369.86,-809.08 -647.27,-1144.27 -277.4,-335.2 -610.66,-610.67 -999.8,-826.42 -389.14,-215.76 -818.73,-339.05 -1288.75,-369.87l0 820.63c0,123.29 -61.65,184.94 -184.94,184.94 -354.47,0 -678.1,73.2 -970.91,219.62 -292.81,146.4 -541.32,342.9 -745.52,589.48 -204.19,246.57 -362.15,527.82 -473.89,843.76 -111.72,315.92 -167.6,643.42 -167.6,982.47 0,331.33 55.88,654.96 167.6,970.9 111.73,315.92 271.63,597.19 479.68,843.77 208.05,246.57 456.55,443.06 745.51,589.47 288.96,146.41 610.66,219.61 965.13,219.61 354.46,0 678.09,-73.2 970.9,-219.61 292.82,-146.41 543.24,-340.98 751.3,-583.7 208.04,-242.72 367.94,-522.06 479.68,-837.98 111.72,-315.93 167.59,-643.42 167.59,-982.46 0,-554.81 -132.93,-1051.82 -398.77,-1491.04 -265.85,-439.23 -626.08,-759 -1080.71,-959.35 -46.23,-15.41 -78.98,-48.16 -98.25,-98.24 -19.26,-50.09 -17.34,-98.26 5.78,-144.49 23.11,-77.05 80.91,-115.59 173.38,-115.59 30.82,0 53.94,3.86 69.35,11.57 261.99,115.58 497.01,267.77 705.05,456.55 208.06,188.8 387.21,404.55 537.47,647.28 150.25,242.72 265.85,506.64 346.76,791.74 80.9,285.11 121.36,585.63 121.36,901.57 0,392.98 -67.43,770.56 -202.27,1132.72 -134.85,362.15 -321.71,681.95 -560.59,959.34 -238.87,277.4 -527.83,498.94 -866.87,664.6 -339.05,165.68 -712.77,248.51 -1121.16,248.51 -408.4,0 -780.19,-84.76 -1115.39,-254.28 -335.19,-169.53 -624.15,-393 -866.87,-670.39 -242.72,-277.4 -429.59,-597.19 -560.59,-959.34 -130.99,-362.17 -196.48,-735.89 -196.48,-1121.16 0,-369.87 59.72,-730.12 179.15,-1080.71 119.44,-350.61 290.88,-662.68 514.35,-936.23 223.47,-273.55 491.23,-500.86 803.32,-681.95 312.07,-181.09 660.75,-283.18 1046.03,-306.3l0 -832.21c0,-123.29 65.49,-184.94 196.49,-184.94 547.09,0 1047.96,113.66 1502.58,340.98 454.63,227.32 847.62,527.83 1178.96,901.56 331.34,373.72 589.48,803.31 774.42,1288.76 184.93,485.44 277.39,990.16 277.39,1514.14 0,523.99 -92.47,1030.63 -277.39,1519.93 -184.94,489.3 -443.07,920.82 -774.42,1294.54 -331.34,373.73 -726.25,672.31 -1184.74,895.78 -458.48,223.47 -957.41,335.2 -1496.8,335.2 -547.11,0 -1049.89,-111.73 -1508.37,-335.2 -458.48,-223.47 -853.41,-522.05 -1184.74,-895.78 -331.34,-373.72 -589.48,-805.24 -774.42,-1294.54 -184.94,-489.3 -277.4,-995.94 -277.4,-1519.93zm2612.2 -3791.15c23.12,-92.46 88.62,-138.7 196.5,-138.7 30.82,0 53.93,3.86 69.34,11.56 53.94,15.41 92.47,50.09 115.58,104.03 23.11,53.94 26.97,107.87 11.56,161.82 -38.53,100.17 -104.03,150.25 -196.48,150.25 -92.47,-30.82 -154.11,-71.27 -184.94,-121.36 -30.82,-50.09 -34.68,-102.1 -11.57,-156.04l0 -11.56zm6206.85 7871.27c-53.94,0 -100.17,-17.34 -138.7,-52.02 -38.53,-34.67 -57.8,-82.83 -57.8,-144.48l0 -7686.32c0,-53.95 19.27,-98.26 57.8,-132.93 38.53,-34.67 84.76,-52.01 138.7,-52.01l1941.81 0c354.47,0 699.29,28.89 1034.48,86.68 335.19,57.8 633.78,163.74 895.77,317.85 261.99,154.11 471.98,366.02 629.93,635.72 157.97,269.69 236.95,616.44 236.95,1040.25 0,123.29 -11.56,242.72 -34.68,358.3 -7.7,61.65 -32.74,104.03 -75.12,127.15 -42.38,23.11 -90.54,34.67 -144.48,34.67 -53.95,-15.42 -96.33,-42.38 -127.15,-80.91 -30.82,-38.53 -38.53,-84.76 -23.11,-138.7 7.71,-46.23 13.48,-94.4 17.34,-144.49 3.86,-50.09 5.78,-102.1 5.78,-156.03 0,-362.16 -69.35,-654.97 -208.05,-878.44 -138.71,-223.46 -323.63,-394.91 -554.81,-514.35 -231.16,-119.43 -489.3,-200.34 -774.41,-242.72 -285.11,-42.39 -577.92,-63.57 -878.44,-63.57l-1756.87 0 0 7489.84c0,131 -61.65,196.49 -184.94,196.49zm2681.55 0l-1652.86 0c-123.29,0 -184.94,-61.65 -184.94,-184.94 0,-53.94 17.34,-100.18 52.02,-138.7 34.68,-38.53 78.98,-57.79 132.92,-57.79l1652.86 0c631.86,0 1111.54,-181.1 1439.02,-543.25 327.48,-362.17 491.22,-855.32 491.22,-1479.48 0,-654.97 -167.59,-1146.21 -502.78,-1473.69 -335.19,-327.49 -826.42,-491.23 -1473.7,-491.23l-716.61 0c-53.95,0 -100.19,-17.34 -138.71,-52.02 -38.53,-34.67 -57.8,-78.97 -57.8,-132.92 0,-53.94 19.27,-100.17 57.8,-138.7 38.52,-38.53 84.76,-57.8 138.71,-57.8l716.61 0c747.44,0 1327.29,200.35 1739.55,601.04 412.24,400.69 618.36,982.47 618.36,1745.32 0,732.04 -200.33,1315.74 -601.03,1751.09 -400.69,435.37 -970.91,653.05 -1710.64,653.05zm-300.53 -1028.7l-1363.89 0c-123.29,0 -184.94,-65.5 -184.94,-196.5l0 -5675.16c0,-123.29 61.65,-184.94 184.94,-184.94l1178.95 0c323.64,0 581.78,42.38 774.42,127.14 192.64,84.77 340.98,190.71 445,317.86 104.03,127.14 171.45,261.99 202.27,404.53 30.82,142.56 46.23,271.63 46.23,387.21 0,46.23 -1.92,107.87 -5.78,184.94 -3.85,77.05 -17.34,154.11 -40.45,231.17 -23.12,77.06 -53.95,142.56 -92.47,196.49 -38.53,53.95 -88.61,80.91 -150.25,80.91 -38.53,0 -65.5,-3.86 -80.91,-11.56 -46.24,-23.12 -78.99,-59.72 -98.26,-109.8 -19.26,-50.09 -17.33,-98.25 5.79,-144.49 53.94,-115.58 80.91,-258.14 80.91,-427.66 0,-339.05 -104.03,-566.36 -312.09,-681.94 -208.04,-115.59 -466.19,-173.38 -774.42,-173.38l-982.46 0 0 5293.74 1167.39 0c184.94,0 354.47,-7.71 508.57,-23.11 154.11,-15.42 285.11,-53.94 393,-115.58 107.87,-61.65 190.7,-154.11 248.5,-277.4 57.8,-123.29 86.69,-292.81 86.69,-508.57 0,-215.76 -28.89,-389.14 -86.69,-520.14 -57.8,-130.99 -142.56,-235.01 -254.29,-312.07 -111.73,-77.06 -242.72,-129.07 -392.98,-156.04 -150.26,-26.96 -317.86,-40.45 -502.8,-40.45l-462.32 0c-53.95,0 -98.26,-19.27 -132.93,-57.8 -34.68,-38.52 -52.01,-84.76 -52.01,-138.71 0,-123.28 61.65,-184.93 184.94,-184.93l462.32 0c238.88,0 456.56,23.11 653.05,69.35 196.49,46.23 366.01,125.21 508.57,236.94 142.56,111.73 254.28,256.21 335.19,433.44 80.91,177.24 121.36,400.69 121.36,670.39 0,277.4 -40.45,500.86 -121.36,670.38 -80.91,169.53 -192.63,302.45 -335.19,398.77 -142.56,96.33 -312.08,159.9 -508.57,190.72 -196.49,30.82 -414.17,46.23 -653.05,46.23zm1930.26 -3814.27c-92.47,-23.11 -154.11,-59.72 -184.94,-109.8 -30.82,-50.09 -34.68,-105.95 -11.56,-167.59 23.11,-92.47 88.61,-138.71 196.49,-138.71 30.82,0 53.94,3.86 69.34,11.56 53.95,15.42 92.47,48.16 115.59,98.25 23.1,50.09 26.96,105.95 11.56,167.6 -38.53,92.47 -104.03,138.7 -196.49,138.7zm1826.23 762.85c0,-369.86 48.16,-735.88 144.48,-1098.04 96.33,-362.16 235.02,-703.14 416.11,-1022.92 181.08,-319.78 402.61,-610.67 664.6,-872.66 262,-261.99 558.66,-477.75 890,-647.27 15.42,-15.42 46.24,-23.11 92.47,-23.11 69.34,0 123.29,30.82 161.81,92.47 30.82,53.94 36.61,105.94 17.34,156.03 -19.27,50.09 -52,86.69 -98.24,109.8 -300.52,161.82 -570.21,360.23 -809.1,595.26 -238.86,235.01 -439.21,497.01 -601.04,785.96 -161.81,288.97 -285.1,597.2 -369.86,924.68 -84.76,327.48 -127.14,660.75 -127.14,999.79 0,470.05 82.83,926.61 248.5,1369.67 165.68,443.07 396.85,834.13 693.51,1173.18 296.67,339.05 651.13,610.66 1063.37,814.87 412.25,204.19 864.96,306.3 1358.12,306.3 493.16,0 943.94,-102.11 1352.33,-306.3 408.39,-204.2 760.93,-477.75 1057.6,-820.64 296.67,-342.91 527.83,-733.96 693.51,-1173.18 165.66,-439.22 248.5,-893.85 248.5,-1363.9 0,-454.62 -77.05,-895.78 -231.17,-1323.44 -154.11,-427.66 -369.87,-809.08 -647.28,-1144.27 -277.39,-335.2 -610.66,-610.67 -999.79,-826.42 -389.14,-215.76 -818.73,-339.05 -1288.76,-369.87l0 820.63c0,123.29 -61.65,184.94 -184.94,184.94 -354.46,0 -678.09,73.2 -970.91,219.62 -292.81,146.4 -541.31,342.9 -745.51,589.48 -204.19,246.57 -362.16,527.82 -473.9,843.76 -111.72,315.92 -167.59,643.42 -167.59,982.47 0,331.33 55.87,654.96 167.59,970.9 111.73,315.92 271.63,597.19 479.68,843.77 208.06,246.57 456.55,443.06 745.52,589.47 288.96,146.41 610.66,219.61 965.12,219.61 354.46,0 678.1,-73.2 970.91,-219.61 292.81,-146.41 543.24,-340.98 751.29,-583.7 208.05,-242.72 367.94,-522.06 479.68,-837.98 111.72,-315.93 167.6,-643.42 167.6,-982.46 0,-554.81 -132.93,-1051.82 -398.77,-1491.04 -265.85,-439.23 -626.09,-759 -1080.71,-959.35 -46.24,-15.41 -78.98,-48.16 -98.25,-98.24 -19.27,-50.09 -17.35,-98.26 5.78,-144.49 23.11,-77.05 80.91,-115.59 173.38,-115.59 30.82,0 53.94,3.86 69.34,11.57 261.99,115.58 497.01,267.77 705.06,456.55 208.06,188.8 387.21,404.55 537.46,647.28 150.26,242.72 265.85,506.64 346.76,791.74 80.9,285.11 121.36,585.63 121.36,901.57 0,392.98 -67.42,770.56 -202.27,1132.72 -134.85,362.15 -321.7,681.95 -560.59,959.34 -238.86,277.4 -527.82,498.94 -866.87,664.6 -339.05,165.68 -712.77,248.51 -1121.16,248.51 -408.4,0 -780.18,-84.76 -1115.38,-254.28 -335.19,-169.53 -624.15,-393 -866.87,-670.39 -242.73,-277.4 -429.59,-597.19 -560.59,-959.34 -130.99,-362.17 -196.49,-735.89 -196.49,-1121.16 0,-369.87 59.72,-730.12 179.15,-1080.71 119.45,-350.61 290.89,-662.68 514.36,-936.23 223.46,-273.55 491.23,-500.86 803.31,-681.95 312.08,-181.09 660.75,-283.18 1046.03,-306.3l0 -832.21c0,-123.29 65.49,-184.94 196.49,-184.94 547.1,0 1047.96,113.66 1502.59,340.98 454.62,227.32 847.62,527.83 1178.95,901.56 331.35,373.72 589.48,803.31 774.42,1288.76 184.94,485.44 277.4,990.16 277.4,1514.14 0,523.99 -92.47,1030.63 -277.4,1519.93 -184.94,489.3 -443.06,920.82 -774.42,1294.54 -331.33,373.73 -726.25,672.31 -1184.74,895.78 -458.48,223.47 -957.41,335.2 -1496.8,335.2 -547.1,0 -1049.89,-111.73 -1508.37,-335.2 -458.48,-223.47 -853.4,-522.05 -1184.74,-895.78 -331.33,-373.72 -589.48,-805.24 -774.42,-1294.54 -184.93,-489.3 -277.39,-995.94 -277.39,-1519.93zm2612.19 -3791.15c23.12,-92.46 88.63,-138.7 196.5,-138.7 30.82,0 53.94,3.86 69.34,11.56 53.95,15.41 92.47,50.09 115.59,104.03 23.11,53.94 26.96,107.87 11.56,161.82 -38.53,100.17 -104.03,150.25 -196.49,150.25 -92.47,-30.82 -154.11,-71.27 -184.94,-121.36 -30.82,-50.09 -34.67,-102.1 -11.57,-156.04l0 -11.56zm5709.85 8853.74c0,123.29 65.49,184.94 196.49,184.94 123.29,0 184.94,-61.65 184.94,-184.94l0 -1202.07c0,-123.29 -61.65,-184.94 -184.94,-184.94 -131,0 -196.49,61.65 -196.49,184.94l0 1202.07zm6565.17 -9038.66l-34.68 0c-107.87,0 -173.38,50.09 -196.48,150.25 -15.42,53.95 -7.72,107.87 23.1,161.82 30.82,53.94 88.62,92.47 173.38,115.58 92.47,0 157.97,-46.24 196.49,-138.71l0 -11.56c15.42,-53.94 11.56,-107.87 -11.56,-161.82 -23.11,-46.23 -61.65,-80.9 -115.58,-104.03l-34.67 -11.55zm-5640.5 6819.45l0 -2739.35c0,-732.03 123.28,-1387 369.86,-1964.92 123.29,-300.51 288.97,-579.84 497.01,-837.98 208.06,-258.13 443.07,-479.68 705.06,-664.61 261.99,-184.93 547.1,-331.33 855.33,-439.21 308.23,-107.88 628.01,-161.83 959.34,-161.83l1248.31 0c53.93,0 100.17,19.28 138.7,57.8 38.52,38.53 57.79,84.76 57.79,138.7 0,53.95 -19.27,98.26 -57.79,132.93 -38.53,34.67 -84.77,52.01 -138.7,52.01l-1248.31 0c-246.58,0 -541.32,55.88 -884.21,167.6 -342.9,111.73 -672.32,306.3 -988.25,583.69 -423.81,377.58 -718.55,822.58 -884.21,1335 -165.68,512.42 -248.51,1046.04 -248.51,1600.83l0 2554.41 6068.16 0c130.99,0 196.48,61.65 196.48,184.94l0 2207.66c0,53.94 -15.41,100.17 -46.23,138.7 -38.52,38.52 -88.61,57.8 -150.25,57.8 -53.95,0 -96.33,-19.28 -127.15,-57.8 -38.52,-38.53 -57.79,-84.76 -57.79,-138.7l0 -2011.17 -6079.73 0c-123.28,0 -184.93,-65.48 -184.93,-196.48zm-705.06 -219.61l-34.67 0c-107.87,0 -173.38,50.08 -196.5,150.25 -15.41,53.94 -7.7,107.88 23.12,161.81 30.82,53.95 88.61,92.47 173.38,115.59 92.47,0 157.96,-46.23 196.49,-138.7l0 -11.57c15.41,-53.94 11.56,-107.88 -11.56,-161.81 -23.12,-46.24 -61.65,-80.91 -115.59,-104.03l-34.67 -11.56zm6299.32 2438.82c0,53.93 -19.27,100.17 -57.8,138.7 -38.52,38.52 -84.76,57.79 -138.7,57.79 -53.94,0 -100.17,-19.27 -138.71,-57.79 -30.82,-38.53 -46.23,-84.77 -46.23,-138.7l0 -982.47 -4704.26 0 0 982.47c0,53.93 -19.27,100.17 -57.8,138.7 -30.82,38.52 -73.2,57.79 -127.14,57.79 -53.94,0 -100.18,-19.27 -138.71,-57.79 -38.52,-38.53 -57.79,-84.77 -57.79,-138.7l0 -1167.4c0,-53.94 19.27,-100.18 57.79,-138.7 38.53,-38.53 84.77,-57.79 138.71,-57.79l5085.7 0c46.23,0 84.75,11.55 115.57,34.66 0,7.71 3.86,11.57 11.56,11.57l0 11.56 11.57 0c0,7.7 3.85,11.56 11.56,11.56 23.11,30.82 34.67,69.35 34.67,115.58l0 1178.96zm-150.26 -7663.22l-1803.1 0c-254.29,0 -506.64,48.16 -757.08,144.48 -250.43,96.33 -475.82,233.1 -676.16,410.32 -300.53,277.4 -510.5,591.41 -629.93,942.02 -119.44,350.6 -179.16,726.26 -179.16,1126.94l0 2080.51c0,53.95 -17.34,100.18 -52.02,138.7 -34.67,38.54 -78.98,57.81 -132.92,57.81 -53.94,0 -100.18,-19.27 -138.7,-57.81 -38.53,-38.52 -57.8,-84.75 -57.8,-138.7l0 -2080.51c0,-523.98 88.62,-997.87 265.85,-1421.68 215.75,-470.04 529.75,-851.47 942.01,-1144.28 412.25,-292.81 884.21,-439.23 1415.9,-439.23l1999.6 0c53.94,0 98.24,19.27 132.92,57.79 34.67,38.54 52.02,84.77 52.02,138.71l0 4588.69c0,53.93 -17.35,100.17 -52.02,138.7 -34.68,38.52 -78.98,57.79 -132.92,57.79 -53.95,0 -100.18,-19.27 -138.7,-57.79 -38.54,-38.53 -57.81,-84.77 -57.81,-138.7l0 -4403.75zm-1005.57 693.51c0,-131 61.65,-196.49 184.94,-196.49 53.93,0 100.17,17.34 138.7,52.02 38.52,34.66 57.79,82.83 57.79,144.48l0 3698.69c0,61.65 -19.27,109.8 -57.79,144.48 -38.53,34.67 -84.77,52.01 -138.7,52.01 -123.29,0 -184.94,-65.49 -184.94,-196.48l0 -3698.69zm3571.54 6021.92c-53.94,0 -100.18,-19.26 -138.71,-57.8 -38.52,-38.52 -57.79,-84.75 -57.79,-138.7l0 -3351.93c0,-53.94 19.27,-100.17 57.79,-138.7 38.53,-38.53 84.77,-57.8 138.71,-57.8l3155.44 0c53.95,0 100.18,19.27 138.7,57.8 38.53,38.53 57.8,84.76 57.8,138.7 0,53.95 -19.27,98.25 -57.8,132.93 -38.52,34.67 -84.75,52.01 -138.7,52.01l-2970.51 0 0 2982.06 4010.77 0c123.29,0 184.94,61.65 184.94,184.94 0,53.95 -17.35,100.18 -52.01,138.7 -34.68,38.54 -78.99,57.8 -132.93,57.8l-4195.69 0zm0 -4369.07c-53.94,0 -100.18,-19.27 -138.71,-57.79 -38.52,-38.53 -57.79,-84.77 -57.79,-138.7l0 -3375.06c0,-53.94 19.27,-100.17 57.79,-138.71 38.53,-38.52 84.77,-57.79 138.71,-57.79 53.94,0 98.25,19.27 132.92,57.79 34.67,38.54 52.01,84.77 52.01,138.71l0 3190.12 2970.51 0c53.95,0 100.18,17.33 138.7,52.01 38.53,34.67 57.8,78.98 57.8,132.93 0,53.93 -19.27,100.17 -57.8,138.7 -38.52,38.52 -84.75,57.79 -138.7,57.79l-3155.44 0zm4172.58 -2727.78c53.94,0 100.17,19.27 138.7,57.79 38.53,38.54 57.8,84.77 57.8,138.71 0,53.94 -19.27,98.25 -57.8,132.93 -38.53,34.67 -84.76,52.01 -138.7,52.01l-2993.62 0 0 1294.54c0,53.94 -19.27,100.18 -57.8,138.7 -38.53,38.53 -84.76,57.79 -138.71,57.79 -53.94,0 -98.24,-19.26 -132.92,-57.79 -34.67,-38.52 -52.02,-84.76 -52.02,-138.7l0 -1479.48c0,-53.94 17.35,-100.17 52.02,-138.71 34.68,-38.52 78.98,-57.79 132.92,-57.79l3190.12 0zm-3224.79 -624.15c-53.94,0 -98.25,-19.27 -132.92,-57.79 -34.67,-38.53 -52.01,-84.77 -52.01,-138.7 0,-123.29 61.65,-184.94 184.93,-184.94l3247.91 0c53.94,0 100.18,17.34 138.7,52.01 38.53,34.67 57.8,78.98 57.8,132.93 0,53.93 -19.27,100.17 -57.8,138.7 -38.52,38.52 -84.76,57.79 -138.7,57.79l-3247.91 0zm34.67 4796.74c53.95,0 100.18,17.34 138.71,52.01 38.53,34.67 57.8,82.83 57.8,144.48l0 1363.9 2311.67 0c53.95,0 100.18,19.27 138.7,57.79 38.54,38.53 57.8,84.77 57.8,138.7 0,53.95 -19.26,98.26 -57.8,132.93 -38.52,34.68 -84.75,52.01 -138.7,52.01l-2508.17 0c-123.29,0 -184.94,-61.65 -184.94,-184.94l0 -1560.38c0,-131 61.65,-196.48 184.94,-196.48zm3224.8 1548.82c53.93,15.41 92.47,48.16 115.57,98.25 23.12,50.08 26.97,102.1 11.56,156.03l0 11.57c-38.52,92.47 -104.03,138.7 -196.49,138.7 -84.75,-23.12 -142.56,-59.72 -173.37,-109.8 -30.82,-50.09 -38.53,-105.95 -23.11,-167.6 38.52,-92.47 104.03,-138.7 196.48,-138.7 30.82,0 53.95,3.84 69.36,11.56zm4265.04 -3698.68c84.77,15.41 140.63,48.15 167.61,98.24 26.96,50.09 32.74,98.25 17.33,144.49l-1375.44 3999.2c-38.53,84.76 -100.18,127.14 -184.94,127.14 -30.82,0 -50.09,-3.85 -57.79,-11.56 -53.95,-15.41 -92.47,-46.23 -115.59,-92.47 -23.11,-46.23 -26.96,-96.32 -11.56,-150.25l1375.44 -3987.65c38.54,-84.76 100.18,-127.13 184.94,-127.13zm-46.23 -2993.64c100.18,15.42 161.82,61.65 184.94,138.71l2288.57 6831.01c38.52,123.29 0,204.2 -115.59,242.73 -15.41,7.71 -34.67,11.56 -57.79,11.56 -100.18,0 -161.82,-42.38 -184.94,-127.14l-2115.19 -6310.89 -2485.05 7108.42c-23.11,92.47 -80.92,138.7 -173.38,138.7 -15.42,0 -26.97,-1.93 -34.67,-5.78 -7.71,-3.86 -19.27,-5.78 -34.68,-5.78 -46.23,-15.41 -80.91,-48.16 -104.02,-98.25 -23.12,-50.09 -26.98,-98.25 -11.57,-144.49l2670 -7640.09c23.1,-92.47 80.9,-138.71 173.37,-138.71zm-1560.38 7628.55c84.76,23.12 142.56,59.72 173.38,109.8 30.82,50.09 38.52,105.95 23.11,167.6 -23.11,69.35 -57.8,109.8 -104.03,121.36 -46.24,11.56 -100.18,17.34 -161.82,17.34 -53.94,-23.11 -92.47,-59.72 -115.58,-109.8 -23.12,-50.09 -26.96,-102.1 -11.56,-156.04l0 -11.56c38.52,-92.47 104.03,-138.7 196.49,-138.7z"/>
 </g>
</svg>
